<svg xmlns="http://www.w3.org/2000/svg"><style>:root svg:not(:target){display:none}</style><svg viewBox="0 -960 960 960" fill="#fff" id="arrow"><path d="m242-200 210-280-210-280h74l210 280-210 280h-74Zm252 0 210-280-210-280h74l210 280-210 280h-74Z"></path></svg><svg viewBox="0 -960 960 960" fill="#fff" id="bolt"><path d="m422-232 207-248h-160l29-227-185 267h139l-30 208Zm-102 152 40-280h-200l360-520h80l-40 320h240l-400 480h-80Zm151-390Z"></path></svg><svg viewBox="0 -960 960 960" fill="#fff" id="face"><path d="M360-390q-21 0-35.5-14.5t-14.5-35.5q0-21 14.5-35.5t35.5-14.5q21 0 35.5 14.5t14.5 35.5q0 21-14.5 35.5t-35.5 14.5Zm240 0q-21 0-35.5-14.5t-14.5-35.5q0-21 14.5-35.5t35.5-14.5q21 0 35.5 14.5t14.5 35.5q0 21-14.5 35.5t-35.5 14.5Zm-120 230q134 0 227-93t93-227q0-24-3-46.5t-11-43.5q-21 5-42 7.5t-44 2.5q-91 0-172-39t-138-109q-32 78-91.5 135.5t-138.5 86.5v6q0 134 93 227t227 93Zm0 80q-83 0-156-31.5t-127-85.5q-54-54-85.5-127t-31.5-156q0-83 31.5-156t85.5-127q54-54 127-85.5t156-31.5q83 0 156 31.5t127 85.5q54 54 85.5 127t31.5 156q0 83-31.5 156t-85.5 127q-54 54-127 85.5t-156 31.5Zm-54-715q42 70 114 112.5t160 42.5q14 0 27-1.5t27-3.5q-42-70-114-112.5t-160-42.5q-14 0-27 1.5t-27 3.5Zm-249 214q51-29 89-75t57-103q-51 29-89 75t-57 103Zm249-214Zm-103 36Z"></path></svg><svg viewBox="0 0 60 60" id="htmlacademy_logo"><path fill="#2E368F" d="M30.2 5h-.2l-19.7 2.1v36.2l19.7 11.7 19.7-11.7v-36.2l-19.5-2.1zm17 36.8-17.2 10.2-17.2-10.2v-14.8l17.1 10.2v1.8l-11.7-7v1.8l11.8 7.1v1.9l-11.8-7v1.8l11.8 7 11.9-7.1v-7.6l5.3-3.2v15.1zm-.1-17-4.7 2.8-2.2 1.3-10.3-6.1v1.8l8.8 5.3h-.1l-.2.1-1.3.7-7.3-4.3v1.8l5.8 3.4-1.4.9-4.3-2.6v1.8l2.9 1.7-2.9 1.7-17-10.1 17-10.2 17.2 10zm.1-1.8-17.3-10.2-17.1 10.2v-13.6l17.2-1.8 17.2 1.8v13.6z"></path></svg><svg fill="none" viewBox="0 0 93 27" id="htmlacademy_text"><g fill="#2D3440" clip-path="url(#htmlacademy_text_0)"><path d="M0 10.42v2.08h1.99v-2.08h-1.99Zm9.42-6.76c-1.26 0-2.28.58-2.92 1.4h-.07v-5.06h-1.64v12.5h1.64v-4.29c0-1.72 1.07-2.95 2.64-2.95 1.49 0 2.35 1.11 2.35 2.6v4.64h1.65v-4.93c0-2.38-1.47-3.9-3.65-3.9Zm12.11.24h-3.9v-3.02h-1.63v3.02h-1.55v1.6h1.55v4.84c0 1.39.78 2.15 2.18 2.15h3.36v-1.61h-3.04c-.55 0-.86-.32-.86-.86v-4.52h3.89v-1.6Zm11.72-.22c-1.3 0-2.31.64-2.86 1.67h-.06a2.9 2.9 0 0 0-2.71-1.67c-1.14 0-2 .6-2.52 1.46h-.07v-1.24h-1.58v8.59h1.65v-4.4c0-1.61.84-2.8 2.12-2.83 1.21-.03 1.92.83 1.92 2.14v5.1h1.64v-4.55c0-1.93 1.14-2.69 2.13-2.69 1.2 0 1.9.83 1.9 2.14v5.1h1.64v-5.28c0-2.08-1.17-3.54-3.2-3.54Zm5.43 6.6c0 1.4.8 2.22 2.26 2.22h1.63v-1.6h-1.39c-.55 0-.86-.31-.86-.85v-10.05h-1.64v10.28Zm-15.3 5.66h-.07a3.75 3.75 0 0 0-3.07-1.49c-2.54-.03-4.36 1.85-4.36 4.5 0 2.68 1.85 4.56 4.34 4.53a3.66 3.66 0 0 0 3.09-1.57h.07v1.33h1.62v-8.55h-1.62v1.25Zm-2.91 5.95a2.83 2.83 0 0 1-2.95-2.93 2.83 2.83 0 0 1 2.95-2.94c1.75 0 2.89 1.31 2.89 2.94 0 1.6-1.14 2.93-2.9 2.93Zm15.28-4.09a4.28 4.28 0 0 0-4.36-3.35 4.37 4.37 0 0 0-4.54 4.5 4.39 4.39 0 0 0 4.54 4.53 4.3 4.3 0 0 0 4.36-3.4h-1.71a2.68 2.68 0 0 1-2.63 1.83 2.84 2.84 0 0 1-2.91-2.95 2.82 2.82 0 0 1 2.9-2.94 2.7 2.7 0 0 1 2.64 1.78h1.71Zm8.8-1.86h-.07a3.75 3.75 0 0 0-3.07-1.49c-2.54-.03-4.36 1.85-4.36 4.5 0 2.68 1.85 4.56 4.34 4.53a3.66 3.66 0 0 0 3.09-1.57h.07v1.33h1.62v-8.55h-1.62v1.25Zm-2.91 5.95a2.83 2.83 0 0 1-2.95-2.93 2.83 2.83 0 0 1 2.95-2.94c1.75 0 2.89 1.31 2.89 2.94 0 1.6-1.14 2.93-2.9 2.93Zm13.88-5.87h-.07a3.73 3.73 0 0 0-3.08-1.57c-2.5-.03-4.35 1.85-4.35 4.52 0 2.66 1.82 4.54 4.37 4.5a3.74 3.74 0 0 0 3.04-1.47h.09v1.25h1.63v-12.45h-1.63v5.21Zm-2.9 5.89a2.83 2.83 0 0 1-2.95-2.94 2.83 2.83 0 0 1 2.94-2.93c1.75 0 2.9 1.33 2.9 2.93a2.82 2.82 0 0 1-2.9 2.94Zm10.72-7.46a4.36 4.36 0 0 0-4.43 4.52c0 2.44 1.7 4.5 4.47 4.5 2 0 3.62-1.08 4.19-2.9h-1.71c-.39.82-1.3 1.34-2.41 1.34-1.56 0-2.67-1.04-2.79-2.37h7.08c.23-2.84-1.56-5.09-4.4-5.09Zm-.03 1.57a2.6 2.6 0 0 1 2.65 2.07h-5.26a2.57 2.57 0 0 1 2.61-2.07Zm16.1-1.55c-1.31 0-2.32.64-2.87 1.66h-.05c-.5-1-1.44-1.66-2.72-1.66a2.9 2.9 0 0 0-2.53 1.45h-.07v-1.23h-1.57v8.55h1.65v-4.39c0-1.6.85-2.78 2.13-2.81 1.21-.03 1.92.83 1.92 2.12v5.08h1.65v-4.52c0-1.92 1.14-2.68 2.13-2.68 1.2 0 1.9.83 1.9 2.12v5.08h1.65v-5.25c0-2.07-1.18-3.52-3.2-3.52Zm9.09 7.4-2.94-7.18h-1.82l3.92 9.36-.02.03c-.28.71-.59.97-1.35.97h-2.03v1.64h2.03c1.49 0 2.28-.67 2.84-2.12l3.77-9.88h-1.68l-2.72 7.18Z"></path></g><defs><clipPath id="htmlacademy_text_0"><path fill="#fff" d="M0 0h93v26.71h-93z"></path></clipPath></defs></svg><svg viewBox="0 -960 960 960" fill="#fff" id="login"><path d="M480-120v-80h280v-560h-280v-80h280q33 0 56.5 23.5t23.5 56.5v560q0 33-23.5 56.5t-56.5 23.5h-280Zm-80-160-55-58 102-102h-327v-80h327l-102-102 55-58 200 200-200 200Z"></path></svg><svg viewBox="0 -960 960 960" fill="#fff" id="settings"><path d="m370-80-16-128q-13-5-24.5-12t-22.5-15l-119 50-110-190 103-78q-1-7-1-13.5v-27q0-6.5 1-13.5l-103-78 110-190 119 50q11-8 23-15t24-12l16-128h220l16 128q13 5 24.5 12t22.5 15l119-50 110 190-103 78q1 7 1 13.5v27q0 6.5-2 13.5l103 78-110 190-118-50q-11 8-23 15t-24 12l-16 128h-220Zm70-80h79l14-106q31-8 57.5-23.5t48.5-37.5l99 41 39-68-86-65q5-14 7-29.5t2-31.5q0-16-2-31.5t-7-29.5l86-65-39-68-99 42q-22-23-48.5-38.5t-57.5-23.5l-13-106h-79l-14 106q-31 8-57.5 23.5t-48.5 37.5l-99-41-39 68 86 64q-5 15-7 30t-2 32q0 16 2 31t7 30l-86 65 39 68 99-42q22 23 48.5 38.5t57.5 23.5l13 106Zm42-180q58 0 99-41t41-99q0-58-41-99t-99-41q-59 0-99.5 41t-40.5 99q0 58 40.5 99t99.5 41Zm-2-140Z"></path></svg><svg viewBox="0 -960 960 960" fill="#fff" id="star"><path d="m354-287 126-76 126 77-33-144 111-96-146-13-58-136-58 135-146 13 111 97-33 143Zm-121 167 65-281-218-189 288-25 112-265 112 265 288 25-218 189 65 281-247-149-247 149Zm247-350Z"></path></svg></svg>