<svg xmlns="http://www.w3.org/2000/svg" viewBox="0 -960 960 960" fill="#fff"><path d="M360-390q-21 0-35.5-14.5t-14.5-35.5q0-21 14.5-35.5t35.5-14.5q21 0 35.5 14.5t14.5 35.5q0 21-14.5 35.5t-35.5 14.5Zm240 0q-21 0-35.5-14.5t-14.5-35.5q0-21 14.5-35.5t35.5-14.5q21 0 35.5 14.5t14.5 35.5q0 21-14.5 35.5t-35.5 14.5Zm-120 230q134 0 227-93t93-227q0-24-3-46.5t-11-43.5q-21 5-42 7.5t-44 2.5q-91 0-172-39t-138-109q-32 78-91.5 135.5t-138.5 86.5v6q0 134 93 227t227 93Zm0 80q-83 0-156-31.5t-127-85.5q-54-54-85.5-127t-31.5-156q0-83 31.5-156t85.5-127q54-54 127-85.5t156-31.5q83 0 156 31.5t127 85.5q54 54 85.5 127t31.5 156q0 83-31.5 156t-85.5 127q-54 54-127 85.5t-156 31.5Zm-54-715q42 70 114 112.5t160 42.5q14 0 27-1.5t27-3.5q-42-70-114-112.5t-160-42.5q-14 0-27 1.5t-27 3.5Zm-249 214q51-29 89-75t57-103q-51 29-89 75t-57 103Zm249-214Zm-103 36Z"/></svg>