<svg xmlns="http://www.w3.org/2000/svg" viewBox="0 -960 960 960" fill="#fff"><path d="m370-80-16-128q-13-5-24.5-12t-22.5-15l-119 50-110-190 103-78q-1-7-1-13.5v-27q0-6.5 1-13.5l-103-78 110-190 119 50q11-8 23-15t24-12l16-128h220l16 128q13 5 24.5 12t22.5 15l119-50 110 190-103 78q1 7 1 13.5v27q0 6.5-2 13.5l103 78-110 190-118-50q-11 8-23 15t-24 12l-16 128h-220Zm70-80h79l14-106q31-8 57.5-23.5t48.5-37.5l99 41 39-68-86-65q5-14 7-29.5t2-31.5q0-16-2-31.5t-7-29.5l86-65-39-68-99 42q-22-23-48.5-38.5t-57.5-23.5l-13-106h-79l-14 106q-31 8-57.5 23.5t-48.5 37.5l-99-41-39 68 86 64q-5 15-7 30t-2 32q0 16 2 31t7 30l-86 65 39 68 99-42q22 23 48.5 38.5t57.5 23.5l13 106Zm42-180q58 0 99-41t41-99q0-58-41-99t-99-41q-59 0-99.5 41t-40.5 99q0 58 40.5 99t99.5 41Zm-2-140Z"/></svg>